#!OML:ASF H:\BreakDance\Project 1\Capture day 1\Session 1\Male.ASF
:FULLY-SPECIFIED
:DEGREES
484
root 22.0289 8.02475 -11.3686 -153.248 174.6 -84.5529
lowerback -4.71417 -8.41209 -3.80827
upperback -4.67549 -10.789 8.62324
thorax 0.123483 -5.22892 10.5302
lowerneck -10.6743 0.120034 -7.14907
upperneck 20.4395 5.23083 -17.4711
head 8.6359 0.350307 -4.17966
rclavicle -1.90833e-014 9.54166e-015
rhumerus -30.7126 -62.5285 -60.2002
rradius 101.533
rwrist -25.6756
rhand -55.8368 463.329
rfingers 7.12502
rthumb -28.1802 131.231
lclavicle -1.90833e-014 9.54166e-015
lhumerus -54.2495 6.78982 -13.4611
lradius 26.5816
lwrist 31.1372
lhand -49.7337 -393.765
lfingers 7.12502
lthumb -22.3335 -5.03541
rfemur -56.5237 7.71209 16.7042
rtibia 38.3022
rfoot 17.4993 13.9539
rtoes 36.611
lfemur 21.2351 9.28211 2.93305
ltibia 26.6234
lfoot -2.53775 11.9756
ltoes 16.2364
485
root 22.0235 8.00919 -11.3336 -153.459 174.97 -84.8486
lowerback -4.64364 -8.4525 -3.97727
upperback -4.7072 -10.8416 8.64503
thorax 0.0968615 -5.25371 10.6559
lowerneck -10.5906 0.164785 -7.30361
upperneck 20.4517 5.30923 -17.4682
head 8.62898 0.378586 -4.14493
rclavicle -1.30403e-013 -1.27222e-014
rhumerus -30.7232 -62.2522 -60.3143
rradius 101.306
rwrist -25.5981
rhand -55.7418 462.82
rfingers 7.12502
rthumb -28.0895 130.737
lclavicle -1.30403e-013 -1.27222e-014
lhumerus -54.2936 6.57133 -13.4954
lradius 26.6675
lwrist 31.4778
lhand -49.67 -393.939
lfingers 7.12502
lthumb -22.2724 -5.20245
rfemur -56.2279 7.10066 16.5341
rtibia 38.4843
rfoot 17.2422 13.9391
rtoes 35.3398
lfemur 21.8178 9.13396 2.43237
ltibia 25.2797
lfoot -2.24455 12.0687
ltoes 16.4885
486
root 22.0254 7.99345 -11.3002 -153.655 175.286 -85.2377
lowerback -4.60307 -8.49193 -4.04756
upperback -4.743 -10.8925 8.69421
thorax 0.0700227 -5.27779 10.7525
lowerneck -10.5336 0.187864 -7.34045
upperneck 20.4042 5.35761 -17.6184
head 8.61145 0.3901 -4.18509
rclavicle -7.63333e-014 6.67916e-014
rhumerus -30.6512 -62.011 -60.4599
rradius 101.128
rwrist -25.5015
rhand -55.6781 462.327
rfingers 7.12502
rthumb -28.0286 130.254
lclavicle -7.63333e-014 6.67916e-014
lhumerus -54.3387 6.50845 -13.6245
lradius 26.7266
lwrist 31.6361
lhand -49.7095 -394.113
lfingers 7.12502
lthumb -22.3103 -5.38148
rfemur -56.0272 6.67861 16.3157
rtibia 38.7251
rfoot 16.8553 13.8682
rtoes 33.2089
lfemur 22.4088 8.95806 2.08025
ltibia 23.9515
lfoot -1.81989 12.0329
ltoes 17.0366
487
root 22.0366 7.97781 -11.2698 -153.83 175.542 -85.7219
lowerback -4.61153 -8.50329 -3.99567
upperback -4.74819 -10.9087 8.74415
thorax 0.0731526 -5.28701 10.7753
lowerneck -10.5806 0.164699 -7.18717
upperneck 20.3026 5.34443 -17.9456
head 8.59942 0.367989 -4.32483
rclavicle -7.95139e-014 -2.54444e-014
rhumerus -30.6479 -61.8682 -60.5772
rradius 100.943
rwrist -25.4228
rhand -55.6514 461.795
rfingers 7.12502
rthumb -28.003 129.726
lclavicle -7.95139e-014 -2.54444e-014
lhumerus -54.3086 6.67476 -13.8361
lradius 26.757
lwrist 31.5998
lhand -49.8278 -394.27
lfingers 7.12502
lthumb -22.4238 -5.55206
rfemur -55.9332 6.5152 15.9935
rtibia 39.055
rfoot 16.3274 13.5174
rtoes 31.6238
lfemur 22.8823 8.75393 1.88449
ltibia 22.8958
lfoot -1.51288 11.9748
ltoes 17.6721
488
root 22.0627 7.96325 -11.2457 -153.993 175.753 -86.2728
lowerback -4.65666 -8.48218 -3.84416
upperback -4.72925 -10.8844 8.77754
thorax 0.0919537 -5.27787 10.7214
lowerneck -10.6234 0.115084 -6.96195
upperneck 20.1406 5.25926 -18.2369
head 8.55861 0.324659 -4.46906
rclavicle -2.00375e-013 1.59028e-015
rhumerus -30.7956 -61.8218 -60.597
rradius 100.787
rwrist -25.3703
rhand -55.6688 461.312
rfingers 7.12502
rthumb -28.0197 129.241
lclavicle -2.00375e-013 1.59028e-015
lhumerus -54.1829 6.97107 -14.0694
lradius 26.7723
lwrist 31.4381
lhand -49.9924 -394.345
lfingers 7.12502
lthumb -22.5818 -5.64589
rfemur -55.9787 6.88369 15.3409
rtibia 39.5372
rfoot 15.505 12.573
rtoes 30.5625
lfemur 23.095 8.54207 1.81609
ltibia 22.399
lfoot -1.41138 11.8859
ltoes 18.0121
489
root 22.1045 7.951 -11.2291 -154.135 175.954 -86.8294
lowerback -4.72293 -8.43936 -3.64565
upperback -4.70451 -10.8331 8.79131
thorax 0.110502 -5.25561 10.6193
lowerneck -10.6281 0.0533298 -6.76776
upperneck 19.921 5.12252 -18.4134
head 8.48115 0.271132 -4.57006
rclavicle 3.49861e-014 -1.74931e-014
rhumerus -31.1118 -61.7918 -60.5131
rradius 100.612
rwrist -25.3401
rhand -55.708 460.895
rfingers 7.12502
rthumb -28.0572 128.817
lclavicle 3.49861e-014 -1.74931e-014
lhumerus -54.0093 7.28763 -14.2578
lradius 26.7814
lwrist 31.2192
lhand -50.1583 -394.306
lfingers 7.12502
lthumb -22.741 -5.62647
rfemur -56.1694 7.57098 14.4214
rtibia 40.1919
rfoot 14.5539 10.9575
rtoes 31.5791
lfemur 22.9791 8.32967 1.78016
ltibia 22.5791
lfoot -1.5711 11.7495
ltoes 17.736
490
root 22.1652 7.94148 -11.2224 -154.252 176.151 -87.4135
lowerback -4.79805 -8.39387 -3.38596
upperback -4.6953 -10.7782 8.81377
thorax 0.107807 -5.2305 10.4932
lowerneck -10.5361 0.00669711 -6.73336
upperneck 19.6505 4.97044 -18.3661
head 8.35644 0.228164 -4.56343
rclavicle 1.81292e-013 -1.74931e-014
rhumerus -31.452 -61.7426 -60.3968
rradius 100.451
rwrist -25.2907
rhand -55.7771 460.724
rfingers 7.12502
rthumb -28.1232 128.635
lclavicle 1.81292e-013 -1.74931e-014
lhumerus -53.8568 7.49286 -14.342
lradius 26.7963
lwrist 31.0274
lhand -50.3079 -394.171
lfingers 7.12502
lthumb -22.8846 -5.50883
rfemur -56.5765 8.53043 13.2893
rtibia 41.0632
rfoot 13.4656 8.83878
rtoes 33.1119
lfemur 22.5153 8.13373 1.80146
ltibia 23.4702
lfoot -2.01341 11.6214
ltoes 16.8733
491
root 22.2393 7.93315 -11.2223 -154.354 176.344 -88.0132
lowerback -4.86501 -8.35011 -3.10427
upperback -4.67412 -10.7263 8.84907
thorax 0.112724 -5.20749 10.3687
lowerneck -10.4607 -0.0237247 -6.82991
upperneck 19.3782 4.83287 -18.1275
head 8.22817 0.198865 -4.46623
rclavicle 7.95139e-014 -3.18055e-015
rhumerus -31.6992 -61.704 -60.3635
rradius 100.253
rwrist -25.1942
rhand -55.9338 460.893
rfingers 7.12502
rthumb -28.273 128.78
lclavicle 7.95139e-014 -3.18055e-015
lhumerus -53.7427 7.61499 -14.3031
lradius 26.8075
lwrist 30.8785
lhand -50.4455 -393.942
lfingers 7.12502
lthumb -23.0166 -5.29655
rfemur -57.1357 9.1954 12.3538
rtibia 42.1094
rfoot 12.3611 6.7875
rtoes 34.5007
lfemur 21.7953 7.9504 1.86386
ltibia 24.8794
lfoot -2.68632 11.4503
ltoes 15.2327
492
root 22.3259 7.92531 -11.2279 -154.454 176.539 -88.594
lowerback -4.90585 -8.3306 -2.85484
upperback -4.65938 -10.7054 8.89856
thorax 0.111452 -5.19935 10.2786
lowerneck -10.3369 -0.0253358 -7.01463
upperneck 19.0903 4.72676 -17.7938
head 8.08492 0.191045 -4.31779
rclavicle 3.18055e-015 2.06736e-014
rhumerus -31.8134 -61.6297 -60.4225
rradius 100.021
rwrist -25.0257
rhand -56.1881 461.308
rfingers 7.12502
rthumb -28.516 129.154
lclavicle 3.18055e-015 2.06736e-014
lhumerus -53.7025 7.62332 -14.1693
lradius 26.806
lwrist 30.7458
lhand -50.5306 -393.612
lfingers 7.12502
lthumb -23.0983 -4.97682
rfemur -57.7904 9.50494 11.6317
rtibia 43.2767
rfoot 11.5057 5.59651
rtoes 33.1026
lfemur 20.9413 7.77341 1.93296
ltibia 26.581
lfoot -3.51244 11.2914
ltoes 13.2077
493
root 22.412 7.91563 -11.2317 -154.558 176.737 -89.1424
lowerback -4.92672 -8.31389 -2.64899
upperback -4.62692 -10.6892 8.93397
thorax 0.123835 -5.19428 10.1984
lowerneck -10.285 -0.0184114 -7.10961
upperneck 18.853 4.65271 -17.5395
head 7.97897 0.190286 -4.21216
rclavicle 5.08889e-014 7.15625e-014
rhumerus -31.7526 -61.634 -60.5871
rradius 99.7839
rwrist -24.7676
rhand -56.4376 461.491
rfingers 7.12502
rthumb -28.7544 129.297
lclavicle 5.08889e-014 7.15625e-014
lhumerus -53.6497 7.64015 -13.987
lradius 26.7747
lwrist 30.5864
lhand -50.5595 -393.233
lfingers 7.12502
lthumb -23.126 -4.60143
rfemur -58.3931 9.16185 11.3307
rtibia 44.415
rfoot 10.8663 4.92768
rtoes 30.999
lfemur 20.094 7.59984 1.9846
ltibia 28.2616
lfoot -4.39206 11.1914
ltoes 11.3257
494
root 22.4928 7.9034 -11.2307 -154.673 176.938 -89.6553
lowerback -4.9218 -8.31134 -2.4915
upperback -4.59863 -10.6906 8.97001
thorax 0.129832 -5.1974 10.148
lowerneck -10.2618 0.0011897 -7.12311
upperneck 18.6636 4.62508 -17.4414
head 7.90448 0.198952 -4.17201
rclavicle 9.54166e-014 -6.52014e-014
rhumerus -31.6443 -61.6281 -60.764
rradius 99.5508
rwrist -24.435
rhand -56.5608 461.055
rfingers 7.12502
rthumb -28.872 128.84
lclavicle 9.54166e-014 -6.52014e-014
lhumerus -53.6183 7.70373 -13.8105
lradius 26.7273
lwrist 30.4025
lhand -50.5345 -392.929
lfingers 7.12502
lthumb -23.102 -4.29402
rfemur -58.8599 8.22363 11.4158
rtibia 45.4169
rfoot 10.3301 4.65049
rtoes 28.4158
lfemur 19.3456 7.41943 2.01432
ltibia 29.744
lfoot -5.27257 11.097
ltoes 10.0458
495
root 22.5546 7.88691 -11.218 -154.807 177.138 -90.1376
lowerback -4.89464 -8.3196 -2.37242
upperback -4.5772 -10.7049 9.0102
thorax 0.12648 -5.20623 10.1261
lowerneck -10.265 0.0233383 -7.02968
upperneck 18.5135 4.6375 -17.5834
head 7.86051 0.209302 -4.23033
rclavicle 5.725e-014 -4.13472e-014
rhumerus -31.6076 -61.5779 -60.8691
rradius 99.3191
rwrist -24.0708
rhand -56.5037 460.159
rfingers 7.12502
rthumb -28.8175 127.954
lclavicle 5.725e-014 -4.13472e-014
lhumerus -53.6015 7.84362 -13.6205
lradius 26.6716
lwrist 30.2056
lhand -50.4934 -392.761
lfingers 7.12502
lthumb -23.0626 -4.12097
rfemur -59.0849 6.66027 11.9047
rtibia 46.163
rfoot 9.87557 4.82681
rtoes 26.5182
lfemur 18.7576 7.24427 2.01912
ltibia 30.8687
lfoot -6.05954 11.0228
ltoes 9.68421
496
root 22.6006 7.86636 -11.196 -154.952 177.329 -90.6437
lowerback -4.85568 -8.3238 -2.23698
upperback -4.56372 -10.7127 9.06278
thorax 0.106416 -5.21113 10.112
lowerneck -10.2415 0.0589143 -6.96198
upperneck 18.4202 4.68298 -17.7411
head 7.83369 0.229891 -4.28832
rclavicle -1.55847e-013 -6.36111e-014
rhumerus -31.692 -61.502 -60.8613
rradius 99.1575
rwrist -23.7072
rhand -56.2675 459.2
rfingers 7.12502
rthumb -28.5918 127.033
lclavicle -1.55847e-013 -6.36111e-014
lhumerus -53.5573 8.08809 -13.4113
lradius 26.6085
lwrist 30.0216
lhand -50.446 -392.712
lfingers 7.12502
lthumb -23.0171 -4.06613
rfemur -59.1361 4.641 12.7059
rtibia 46.6663
rfoot 9.50912 5.39613
rtoes 25.4016
lfemur 18.3008 7.10923 2.07551
ltibia 31.6824
lfoot -6.6959 10.8834
ltoes 9.70198
497
root 22.6304 7.84145 -11.1651 -155.098 177.517 -91.2233
lowerback -4.82835 -8.29399 -2.0351
upperback -4.53931 -10.6775 9.11423
thorax 0.0837779 -5.19492 10.062
lowerneck -10.2209 0.0887375 -6.94716
upperneck 18.405 4.72704 -17.806
head 7.83016 0.247881 -4.30835
rclavicle -3.18055e-014 -1.27222e-014
rhumerus -32.0344 -61.4441 -60.6827
rradius 99.0419
rwrist -23.4058
rhand -55.9421 458.476
rfingers 7.12502
rthumb -28.2809 126.361
lclavicle -3.18055e-014 -1.27222e-014
lhumerus -53.4042 8.45446 -13.1442
lradius 26.5434
lwrist 29.883
lhand -50.4013 -392.731
lfingers 7.12502
lthumb -22.9742 -4.07955
rfemur -59.0707 2.20809 13.8446
rtibia 46.9425
rfoot 9.28533 6.45355
rtoes 24.9179
lfemur 17.9392 7.05891 2.24391
ltibia 32.2509
lfoot -7.15142 10.6301
ltoes 9.87606
